solid Created by Gmsh
facet normal 0 -1 0
  outer loop
    vertex 0 0 25
    vertex 1.77635683940025e-15 0 2.072416312633625e-15
    vertex 21.65063509461092 0 12.50000000000008
  endloop
endfacet
facet normal 0 -1 -0
  outer loop
    vertex 21.65063509461092 0 12.50000000000008
    vertex 1.77635683940025e-15 0 2.072416312633625e-15
    vertex 21.65063509461099 0 -12.49999999999995
  endloop
endfacet
facet normal 0 -1 0
  outer loop
    vertex -21.65063509461098 0 12.49999999999997
    vertex 1.77635683940025e-15 0 2.072416312633625e-15
    vertex 0 0 25
  endloop
endfacet
facet normal -0 -1 0
  outer loop
    vertex 21.65063509461099 0 -12.49999999999995
    vertex 1.77635683940025e-15 0 2.072416312633625e-15
    vertex 3.06151588455594e-15 0 -25
  endloop
endfacet
facet normal 0 -1 0
  outer loop
    vertex -21.65063509461092 0 -12.50000000000008
    vertex 1.77635683940025e-15 0 2.072416312633625e-15
    vertex -21.65063509461098 0 12.49999999999997
  endloop
endfacet
facet normal 0 -1 0
  outer loop
    vertex 3.06151588455594e-15 0 -25
    vertex 1.77635683940025e-15 0 2.072416312633625e-15
    vertex -21.65063509461092 0 -12.50000000000008
  endloop
endfacet
facet normal 0 1 0
  outer loop
    vertex 0 100 25
    vertex -5.921189464667501e-16 100 3.256654205567126e-15
    vertex -21.65063509461092 100 12.50000000000008
  endloop
endfacet
facet normal 0 1 0
  outer loop
    vertex -21.65063509461092 100 12.50000000000008
    vertex -5.921189464667501e-16 100 3.256654205567126e-15
    vertex -21.65063509461099 100 -12.49999999999995
  endloop
endfacet
facet normal 0 1 0
  outer loop
    vertex 21.65063509461098 100 12.49999999999997
    vertex -5.921189464667501e-16 100 3.256654205567126e-15
    vertex 0 100 25
  endloop
endfacet
facet normal -0 1 0
  outer loop
    vertex -21.65063509461099 100 -12.49999999999995
    vertex -5.921189464667501e-16 100 3.256654205567126e-15
    vertex 3.06151588455594e-15 100 -25
  endloop
endfacet
facet normal 0 1 -0
  outer loop
    vertex 21.65063509461092 100 -12.50000000000008
    vertex -5.921189464667501e-16 100 3.256654205567126e-15
    vertex 21.65063509461098 100 12.49999999999997
  endloop
endfacet
facet normal 0 1 -0
  outer loop
    vertex 3.06151588455594e-15 100 -25
    vertex -5.921189464667501e-16 100 3.256654205567126e-15
    vertex 21.65063509461092 100 -12.50000000000008
  endloop
endfacet
facet normal 0.269843 2.50745e-16 -0.962904
  outer loop
    vertex -3.41074011481896e-14 40 -25
    vertex 12.99166698013398 33.98531676713969 -21.35922725843087
    vertex 3.06151588455594e-15 0 -25
  endloop
endfacet
facet normal 0.614004 -0.151738 -0.77458
  outer loop
    vertex 3.06151588455594e-15 0 -25
    vertex 12.99166698013398 33.98531676713969 -21.35922725843087
    vertex 22.17668465400832 21.03300344566731 -11.54099899301061
  endloop
endfacet
facet normal 0.379921 6.49001e-16 -0.925019
  outer loop
    vertex 3.06151588455594e-15 100 -25
    vertex 17.57172519696842 80 -17.78298269701191
    vertex 7.13915417668159e-14 60 -25
  endloop
endfacet
facet normal 0.341362 0.0389672 -0.939124
  outer loop
    vertex 17.57172519696842 80 -17.78298269701191
    vertex 16.5526253513764 65.97694507290016 -18.73527672539083
    vertex 7.13915417668159e-14 60 -25
  endloop
endfacet
facet normal 0.249813 0.279788 -0.926991
  outer loop
    vertex 7.13915417668159e-14 60 -25
    vertex 16.5526253513764 65.97694507290016 -18.73527672539083
    vertex 7.073226911862984 57.06890804229493 -23.97852082409733
  endloop
endfacet
facet normal 0.517812 0.0860801 -0.851153
  outer loop
    vertex 7.073226911862984 57.06890804229493 -23.97852082409733
    vertex 16.89050486835909 52.86443691371753 -18.43124643891285
    vertex 10 50 -22.9128784747792
  endloop
endfacet
facet normal 0.988518 -0.151104 2.95001e-15
  outer loop
    vertex 21.65063509461099 0 -12.49999999999995
    vertex 24.92389827333822 21.41353820511904 1.949177996050678
    vertex 21.65063509461092 0 12.50000000000008
  endloop
endfacet
facet normal 0.881474 -0.0134945 -0.472041
  outer loop
    vertex 24.81311577707818 56.92456898548311 -3.051112163345306
    vertex 16.5526253513764 65.97694507290016 -18.73527672539083
    vertex 24.69175651483333 79.17132721082558 -3.913714375396567
  endloop
endfacet
facet normal 0.979856 -0.0154285 -0.199108
  outer loop
    vertex 22.17668465400832 21.03300344566731 -11.54099899301061
    vertex 24.92389827333822 21.41353820511904 1.949177996050678
    vertex 21.65063509461099 0 -12.49999999999995
  endloop
endfacet
facet normal 0.888308 -0.0334519 -0.458027
  outer loop
    vertex 24.69175651483333 79.17132721082558 -3.913714375396567
    vertex 16.5526253513764 65.97694507290016 -18.73527672539083
    vertex 17.57172519696842 80 -17.78298269701191
  endloop
endfacet
facet normal 0.354723 -3.25797e-17 0.934972
  outer loop
    vertex -3.06151588455594e-15 66.66666666666666 25
    vertex 16.58278109708086 82.13701019535347 18.70859083646595
    vertex 0 100 25
  endloop
endfacet
facet normal 0.989508 0.144475 -2.53112e-15
  outer loop
    vertex 21.65063509461098 100 12.49999999999997
    vertex 24.69175651483333 79.17132721082558 -3.913714375396567
    vertex 21.65063509461092 100 -12.50000000000008
  endloop
endfacet
facet normal 0.735626 0.00822011 -0.677339
  outer loop
    vertex 22.17668465400832 21.03300344566731 -11.54099899301061
    vertex 12.99166698013398 33.98531676713969 -21.35922725843087
    vertex 22.46015896360299 41.96285580313577 -10.97912835017809
  endloop
endfacet
facet normal 0.346503 3.18247e-17 0.938049
  outer loop
    vertex 0 0 25
    vertex 16.25183696323317 18.53431257612318 18.99678381517483
    vertex -3.06151588455594e-15 33.3333333333333 25
  endloop
endfacet
facet normal 0.893821 -0.0658223 0.443567
  outer loop
    vertex 24.08043281652412 42.09686939281963 6.718091646358245
    vertex 16.25183696323317 18.53431257612318 18.99678381517483
    vertex 24.92389827333822 21.41353820511904 1.949177996050678
  endloop
endfacet
facet normal 0.979901 -0.00792072 -0.199329
  outer loop
    vertex 22.46015896360299 41.96285580313577 -10.97912835017809
    vertex 24.92389827333822 21.41353820511904 1.949177996050678
    vertex 22.17668465400832 21.03300344566731 -11.54099899301061
  endloop
endfacet
facet normal 0.640222 -0.230492 0.732795
  outer loop
    vertex 24.08043281652412 42.09686939281963 6.718091646358245
    vertex 17.9528387090566 59.0314101458732 17.39814881780815
    vertex -3.06151588455594e-15 33.3333333333333 25
  endloop
endfacet
facet normal 0.496029 0.12578 -0.859148
  outer loop
    vertex 21.65063509461092 100 -12.50000000000008
    vertex 17.57172519696842 80 -17.78298269701191
    vertex 3.06151588455594e-15 100 -25
  endloop
endfacet
facet normal 0.499818 0.0269713 -0.86571
  outer loop
    vertex 3.06151588455594e-15 0 -25
    vertex 22.17668465400832 21.03300344566731 -11.54099899301061
    vertex 21.65063509461099 0 -12.49999999999995
  endloop
endfacet
facet normal 0.526672 0.248624 0.812898
  outer loop
    vertex -3.06151588455594e-15 33.3333333333333 25
    vertex 16.25183696323317 18.53431257612318 18.99678381517483
    vertex 24.08043281652412 42.09686939281963 6.718091646358245
  endloop
endfacet
facet normal 0.886583 -0.0596476 -0.458707
  outer loop
    vertex 21.65063509461092 100 -12.50000000000008
    vertex 24.69175651483333 79.17132721082558 -3.913714375396567
    vertex 17.57172519696842 80 -17.78298269701191
  endloop
endfacet
facet normal 0.75136 -0.0343164 -0.659
  outer loop
    vertex 22.46015896360299 41.96285580313577 -10.97912835017809
    vertex 12.99166698013398 33.98531676713969 -21.35922725843087
    vertex 14.01610176355583 43.78314626356121 -20.70142244759155
  endloop
endfacet
facet normal 0.489463 -0.00760588 -0.871991
  outer loop
    vertex 7.073226911862984 57.06890804229493 -23.97852082409733
    vertex 16.5526253513764 65.97694507290016 -18.73527672539083
    vertex 16.89050486835909 52.86443691371753 -18.43124643891285
  endloop
endfacet
facet normal 0.389919 -0 0.920849
  outer loop
    vertex -3.06151588455594e-15 33.3333333333333 25
    vertex 17.9528387090566 59.0314101458732 17.39814881780815
    vertex -3.06151588455594e-15 66.66666666666666 25
  endloop
endfacet
facet normal 0.88086 0.0939526 0.463959
  outer loop
    vertex 24.92389827333822 21.41353820511904 1.949177996050678
    vertex 16.25183696323317 18.53431257612318 18.99678381517483
    vertex 21.65063509461092 0 12.50000000000008
  endloop
endfacet
facet normal 0.948468 0.0174419 0.316393
  outer loop
    vertex 24.69175651483333 79.17132721082558 -3.913714375396567
    vertex 17.9528387090566 59.0314101458732 17.39814881780815
    vertex 24.81311577707818 56.92456898548311 -3.051112163345306
  endloop
endfacet
facet normal 0.493879 -0.155989 0.855424
  outer loop
    vertex 21.65063509461092 0 12.50000000000008
    vertex 16.25183696323317 18.53431257612318 18.99678381517483
    vertex 0 0 25
  endloop
endfacet
facet normal 0.887606 0.0121956 -0.460443
  outer loop
    vertex 16.89050486835909 52.86443691371753 -18.43124643891285
    vertex 16.5526253513764 65.97694507290016 -18.73527672539083
    vertex 24.81311577707818 56.92456898548311 -3.051112163345306
  endloop
endfacet
facet normal 0.9939 0.0616197 -0.0914634
  outer loop
    vertex 22.46015896360299 41.96285580313577 -10.97912835017809
    vertex 24.08043281652412 42.09686939281963 6.718091646358245
    vertex 24.92389827333822 21.41353820511904 1.949177996050678
  endloop
endfacet
facet normal 0.493786 0.157171 0.855262
  outer loop
    vertex 0 100 25
    vertex 16.58278109708086 82.13701019535347 18.70859083646595
    vertex 21.65063509461098 100 12.49999999999997
  endloop
endfacet
facet normal 0.942238 0.0369901 0.332896
  outer loop
    vertex 16.58278109708086 82.13701019535347 18.70859083646595
    vertex 17.9528387090566 59.0314101458732 17.39814881780815
    vertex 24.69175651483333 79.17132721082558 -3.913714375396567
  endloop
endfacet
facet normal 0.430718 -0.0424322 -0.901489
  outer loop
    vertex 10 50 -22.9128784747792
    vertex 14.01610176355583 43.78314626356121 -20.70142244759155
    vertex 7.073226911862964 42.93109195770502 -23.97852082409731
  endloop
endfacet
facet normal 0.925946 -0.140917 0.350379
  outer loop
    vertex 21.65063509461098 100 12.49999999999997
    vertex 16.58278109708086 82.13701019535347 18.70859083646595
    vertex 24.69175651483333 79.17132721082558 -3.913714375396567
  endloop
endfacet
facet normal 0.201869 -0.149839 -0.967883
  outer loop
    vertex 7.073226911862964 42.93109195770502 -23.97852082409731
    vertex 12.99166698013398 33.98531676713969 -21.35922725843087
    vertex -3.41074011481896e-14 40 -25
  endloop
endfacet
facet normal 0.869966 0.117015 -0.479027
  outer loop
    vertex 16.89050486835909 52.86443691371753 -18.43124643891285
    vertex 24.81311577707818 56.92456898548311 -3.051112163345306
    vertex 22.46015896360299 41.96285580313577 -10.97912835017809
  endloop
endfacet
facet normal 0.425155 0.0163049 -0.904974
  outer loop
    vertex 14.01610176355583 43.78314626356121 -20.70142244759155
    vertex 12.99166698013398 33.98531676713969 -21.35922725843087
    vertex 7.073226911862964 42.93109195770502 -23.97852082409731
  endloop
endfacet
facet normal 0.941748 0.151346 0.300343
  outer loop
    vertex 24.81311577707818 56.92456898548311 -3.051112163345306
    vertex 17.9528387090566 59.0314101458732 17.39814881780815
    vertex 24.08043281652412 42.09686939281963 6.718091646358245
  endloop
endfacet
facet normal 0.532115 0.0429573 -0.845582
  outer loop
    vertex 10 50 -22.9128784747792
    vertex 16.89050486835909 52.86443691371753 -18.43124643891285
    vertex 14.01610176355583 43.78314626356121 -20.70142244759155
  endloop
endfacet
facet normal 0.746487 -0.0708845 -0.661614
  outer loop
    vertex 16.89050486835909 52.86443691371753 -18.43124643891285
    vertex 22.46015896360299 41.96285580313577 -10.97912835017809
    vertex 14.01610176355583 43.78314626356121 -20.70142244759155
  endloop
endfacet
facet normal 0.990073 -0.108105 -0.0898278
  outer loop
    vertex 24.81311577707818 56.92456898548311 -3.051112163345306
    vertex 24.08043281652412 42.09686939281963 6.718091646358245
    vertex 22.46015896360299 41.96285580313577 -10.97912835017809
  endloop
endfacet
facet normal 0.378901 -0.0299918 0.924951
  outer loop
    vertex -3.06151588455594e-15 66.66666666666666 25
    vertex 17.9528387090566 59.0314101458732 17.39814881780815
    vertex 16.58278109708086 82.13701019535347 18.70859083646595
  endloop
endfacet
facet normal -0.269843 -4.6096e-16 -0.962904
  outer loop
    vertex 7.13915417668159e-14 60 -25
    vertex -12.99166698013801 66.01468323285887 -21.35922725842842
    vertex 3.06151588455594e-15 100 -25
  endloop
endfacet
facet normal -0.614004 0.151738 -0.77458
  outer loop
    vertex 3.06151588455594e-15 100 -25
    vertex -12.99166698013801 66.01468323285887 -21.35922725842842
    vertex -22.17668465401236 78.96699655433393 -11.54099899300284
  endloop
endfacet
facet normal -0.379921 -3.53032e-16 -0.925019
  outer loop
    vertex 3.06151588455594e-15 0 -25
    vertex -17.57172519696842 20 -17.78298269701191
    vertex -3.41074011481896e-14 40 -25
  endloop
endfacet
facet normal -0.341362 -0.0389672 -0.939124
  outer loop
    vertex -17.57172519696842 20 -17.78298269701191
    vertex -16.55262535137382 34.02305492709801 -18.73527672539311
    vertex -3.41074011481896e-14 40 -25
  endloop
endfacet
facet normal -0.249813 -0.279788 -0.926991
  outer loop
    vertex -3.41074011481896e-14 40 -25
    vertex -16.55262535137382 34.02305492709801 -18.73527672539311
    vertex -7.073226911862976 42.93109195770504 -23.97852082409733
  endloop
endfacet
facet normal -0.517812 -0.0860801 -0.851153
  outer loop
    vertex -7.073226911862976 42.93109195770504 -23.97852082409733
    vertex -16.89050486837294 47.13556308627945 -18.43124643890017
    vertex -10 50 -22.9128784747792
  endloop
endfacet
facet normal -0.988518 0.151104 2.95001e-15
  outer loop
    vertex -21.65063509461099 100 -12.49999999999995
    vertex -24.9238982733388 78.58646179488289 1.9491779960432
    vertex -21.65063509461092 100 12.50000000000008
  endloop
endfacet
facet normal -0.881474 0.0134945 -0.472041
  outer loop
    vertex -24.81311577708054 43.07543101452927 -3.051112163326122
    vertex -16.55262535137382 34.02305492709801 -18.73527672539311
    vertex -24.69175651483447 20.82867278917985 -3.913714375389379
  endloop
endfacet
facet normal -0.979856 0.0154285 -0.199108
  outer loop
    vertex -22.17668465401236 78.96699655433393 -11.54099899300284
    vertex -24.9238982733388 78.58646179488289 1.9491779960432
    vertex -21.65063509461099 100 -12.49999999999995
  endloop
endfacet
facet normal -0.888308 0.0334519 -0.458027
  outer loop
    vertex -24.69175651483447 20.82867278917985 -3.913714375389379
    vertex -16.55262535137382 34.02305492709801 -18.73527672539311
    vertex -17.57172519696842 20 -17.78298269701191
  endloop
endfacet
facet normal -0.354723 -3.25797e-17 0.934972
  outer loop
    vertex -3.06151588455594e-15 33.3333333333333 25
    vertex -16.58278109709177 17.8629898046549 18.70859083645628
    vertex 0 0 25
  endloop
endfacet
facet normal -0.989508 -0.144475 -2.53112e-15
  outer loop
    vertex -21.65063509461098 0 12.49999999999997
    vertex -24.69175651483447 20.82867278917985 -3.913714375389379
    vertex -21.65063509461092 0 -12.50000000000008
  endloop
endfacet
facet normal -0.735626 -0.00822011 -0.677339
  outer loop
    vertex -22.17668465401236 78.96699655433393 -11.54099899300284
    vertex -12.99166698013801 66.01468323285887 -21.35922725842842
    vertex -22.46015896360368 58.03714419687137 -10.97912835017668
  endloop
endfacet
facet normal -0.346503 3.18247e-17 0.938049
  outer loop
    vertex 0 100 25
    vertex -16.25183696326118 81.46568742386665 18.99678381515086
    vertex -3.06151588455594e-15 66.66666666666666 25
  endloop
endfacet
facet normal -0.893821 0.0658223 0.443567
  outer loop
    vertex -24.08043281652715 57.90313060719869 6.718091646347374
    vertex -16.25183696326118 81.46568742386665 18.99678381515086
    vertex -24.9238982733388 78.58646179488289 1.9491779960432
  endloop
endfacet
facet normal -0.979901 0.00792072 -0.199329
  outer loop
    vertex -22.46015896360368 58.03714419687137 -10.97912835017668
    vertex -24.9238982733388 78.58646179488289 1.9491779960432
    vertex -22.17668465401236 78.96699655433393 -11.54099899300284
  endloop
endfacet
facet normal -0.640222 0.230492 0.732795
  outer loop
    vertex -24.08043281652715 57.90313060719869 6.718091646347374
    vertex -17.9528387090302 40.96858985419573 17.39814881783539
    vertex -3.06151588455594e-15 66.66666666666666 25
  endloop
endfacet
facet normal -0.496029 -0.12578 -0.859148
  outer loop
    vertex -21.65063509461092 0 -12.50000000000008
    vertex -17.57172519696842 20 -17.78298269701191
    vertex 3.06151588455594e-15 0 -25
  endloop
endfacet
facet normal -0.499818 -0.0269713 -0.86571
  outer loop
    vertex 3.06151588455594e-15 100 -25
    vertex -22.17668465401236 78.96699655433393 -11.54099899300284
    vertex -21.65063509461099 100 -12.49999999999995
  endloop
endfacet
facet normal -0.526672 -0.248624 0.812898
  outer loop
    vertex -3.06151588455594e-15 66.66666666666666 25
    vertex -16.25183696326118 81.46568742386665 18.99678381515086
    vertex -24.08043281652715 57.90313060719869 6.718091646347374
  endloop
endfacet
facet normal -0.886583 0.0596476 -0.458707
  outer loop
    vertex -21.65063509461092 0 -12.50000000000008
    vertex -24.69175651483447 20.82867278917985 -3.913714375389379
    vertex -17.57172519696842 20 -17.78298269701191
  endloop
endfacet
facet normal -0.75136 0.0343164 -0.659
  outer loop
    vertex -22.46015896360368 58.03714419687137 -10.97912835017668
    vertex -12.99166698013801 66.01468323285887 -21.35922725842842
    vertex -14.01610176355588 56.21685373643879 -20.70142244759151
  endloop
endfacet
facet normal -0.489463 0.00760588 -0.871991
  outer loop
    vertex -7.073226911862976 42.93109195770504 -23.97852082409733
    vertex -16.55262535137382 34.02305492709801 -18.73527672539311
    vertex -16.89050486837294 47.13556308627945 -18.43124643890017
  endloop
endfacet
facet normal -0.389919 0 0.920849
  outer loop
    vertex -3.06151588455594e-15 66.66666666666666 25
    vertex -17.9528387090302 40.96858985419573 17.39814881783539
    vertex -3.06151588455594e-15 33.3333333333333 25
  endloop
endfacet
facet normal -0.88086 -0.0939526 0.463959
  outer loop
    vertex -24.9238982733388 78.58646179488289 1.9491779960432
    vertex -16.25183696326118 81.46568742386665 18.99678381515086
    vertex -21.65063509461092 100 12.50000000000008
  endloop
endfacet
facet normal -0.948468 -0.0174419 0.316393
  outer loop
    vertex -24.69175651483447 20.82867278917985 -3.913714375389379
    vertex -17.9528387090302 40.96858985419573 17.39814881783539
    vertex -24.81311577708054 43.07543101452927 -3.051112163326122
  endloop
endfacet
facet normal -0.493879 0.155989 0.855424
  outer loop
    vertex -21.65063509461092 100 12.50000000000008
    vertex -16.25183696326118 81.46568742386665 18.99678381515086
    vertex 0 100 25
  endloop
endfacet
facet normal -0.887606 -0.0121956 -0.460443
  outer loop
    vertex -16.89050486837294 47.13556308627945 -18.43124643890017
    vertex -16.55262535137382 34.02305492709801 -18.73527672539311
    vertex -24.81311577708054 43.07543101452927 -3.051112163326122
  endloop
endfacet
facet normal -0.9939 -0.0616197 -0.0914634
  outer loop
    vertex -22.46015896360368 58.03714419687137 -10.97912835017668
    vertex -24.08043281652715 57.90313060719869 6.718091646347374
    vertex -24.9238982733388 78.58646179488289 1.9491779960432
  endloop
endfacet
facet normal -0.493786 -0.157171 0.855262
  outer loop
    vertex 0 0 25
    vertex -16.58278109709177 17.8629898046549 18.70859083645628
    vertex -21.65063509461098 0 12.49999999999997
  endloop
endfacet
facet normal -0.942238 -0.0369901 0.332896
  outer loop
    vertex -16.58278109709177 17.8629898046549 18.70859083645628
    vertex -17.9528387090302 40.96858985419573 17.39814881783539
    vertex -24.69175651483447 20.82867278917985 -3.913714375389379
  endloop
endfacet
facet normal -0.430718 0.0424322 -0.901489
  outer loop
    vertex -10 50 -22.9128784747792
    vertex -14.01610176355588 56.21685373643879 -20.70142244759151
    vertex -7.073226911862963 57.068908042295 -23.97852082409728
  endloop
endfacet
facet normal -0.925946 0.140917 0.350379
  outer loop
    vertex -21.65063509461098 0 12.49999999999997
    vertex -16.58278109709177 17.8629898046549 18.70859083645628
    vertex -24.69175651483447 20.82867278917985 -3.913714375389379
  endloop
endfacet
facet normal -0.201869 0.149839 -0.967883
  outer loop
    vertex -7.073226911862963 57.068908042295 -23.97852082409728
    vertex -12.99166698013801 66.01468323285887 -21.35922725842842
    vertex 7.13915417668159e-14 60 -25
  endloop
endfacet
facet normal -0.869966 -0.117015 -0.479027
  outer loop
    vertex -16.89050486837294 47.13556308627945 -18.43124643890017
    vertex -24.81311577708054 43.07543101452927 -3.051112163326122
    vertex -22.46015896360368 58.03714419687137 -10.97912835017668
  endloop
endfacet
facet normal -0.425155 -0.0163049 -0.904974
  outer loop
    vertex -14.01610176355588 56.21685373643879 -20.70142244759151
    vertex -12.99166698013801 66.01468323285887 -21.35922725842842
    vertex -7.073226911862963 57.068908042295 -23.97852082409728
  endloop
endfacet
facet normal -0.941748 -0.151346 0.300343
  outer loop
    vertex -24.81311577708054 43.07543101452927 -3.051112163326122
    vertex -17.9528387090302 40.96858985419573 17.39814881783539
    vertex -24.08043281652715 57.90313060719869 6.718091646347374
  endloop
endfacet
facet normal -0.532115 -0.0429573 -0.845582
  outer loop
    vertex -10 50 -22.9128784747792
    vertex -16.89050486837294 47.13556308627945 -18.43124643890017
    vertex -14.01610176355588 56.21685373643879 -20.70142244759151
  endloop
endfacet
facet normal -0.746487 0.0708845 -0.661614
  outer loop
    vertex -16.89050486837294 47.13556308627945 -18.43124643890017
    vertex -22.46015896360368 58.03714419687137 -10.97912835017668
    vertex -14.01610176355588 56.21685373643879 -20.70142244759151
  endloop
endfacet
facet normal -0.990073 0.108105 -0.0898278
  outer loop
    vertex -24.81311577708054 43.07543101452927 -3.051112163326122
    vertex -24.08043281652715 57.90313060719869 6.718091646347374
    vertex -22.46015896360368 58.03714419687137 -10.97912835017668
  endloop
endfacet
facet normal -0.378901 0.0299918 0.924951
  outer loop
    vertex -3.06151588455594e-15 33.3333333333333 25
    vertex -17.9528387090302 40.96858985419573 17.39814881783539
    vertex -16.58278109709177 17.8629898046549 18.70859083645628
  endloop
endfacet
facet normal 0 0 -1
  outer loop
    vertex -4.999999999999999 41.33974596215561 -325
    vertex -2.228422912911854e-15 50 -325
    vertex 5.000000000000006 41.33974596215562 -325
  endloop
endfacet
facet normal 0 0 -1
  outer loop
    vertex 10 50 -325
    vertex -2.228422912911854e-15 50 -325
    vertex 4.999999999999992 58.66025403784439 -325
  endloop
endfacet
facet normal 0 0 -1
  outer loop
    vertex -10 50 -325
    vertex -2.228422912911854e-15 50 -325
    vertex -4.999999999999999 41.33974596215561 -325
  endloop
endfacet
facet normal 0 0 -1
  outer loop
    vertex 4.999999999999992 58.66025403784439 -325
    vertex -2.228422912911854e-15 50 -325
    vertex -5.000000000000005 58.66025403784438 -325
  endloop
endfacet
facet normal 0 0 -1
  outer loop
    vertex 5.000000000000006 41.33974596215562 -325
    vertex -2.228422912911854e-15 50 -325
    vertex 10 50 -325
  endloop
endfacet
facet normal 0 -0 -1
  outer loop
    vertex -5.000000000000005 58.66025403784438 -325
    vertex -2.228422912911854e-15 50 -325
    vertex -10 50 -325
  endloop
endfacet
facet normal -0.810507 -0.585728 0
  outer loop
    vertex -10 50 -66.06818154981079
    vertex -3.138446262271152 40.50525645112854 -40.72084525440991
    vertex -10 50 -22.9128784747792
  endloop
endfacet
facet normal 0.850309 -0.526284 0
  outer loop
    vertex 10 50 -22.9128784747792
    vertex 4.460510880383158 41.04992498992419 -35.77689350691237
    vertex 10 50 -66.06818154981079
  endloop
endfacet
facet normal 0.70463 -0.709523 -0.00861775
  outer loop
    vertex 10 50 -325
    vertex 0.294032214245845 40.00432368186196 -295.6360956650367
    vertex -1.147908730933527e-14 40 -319.3216304573083
  endloop
endfacet
facet normal -0.709612 -0.704536 0.00893773
  outer loop
    vertex -1.147908730933527e-14 40 -319.3216304573083
    vertex 0.294032214245845 40.00432368186196 -295.6360956650367
    vertex -10 50 -325
  endloop
endfacet
facet normal 0.647818 -0.754596 -0.104489
  outer loop
    vertex 10 50 -66.06818154981079
    vertex 4.460510880383158 41.04992498992419 -35.77689350691237
    vertex -2.597303112334023e-15 40 -55.84911607948061
  endloop
endfacet
facet normal -0.785398 -0.618991 0
  outer loop
    vertex -10 50 -109.2234846248424
    vertex -2.337005501381631 40.27691379825767 -87.64583308732651
    vertex -10 50 -66.06818154981079
  endloop
endfacet
facet normal 0.785398 -0.618991 0
  outer loop
    vertex 10 50 -238.6893938499368
    vertex 2.337005501373396 40.27691379825569 -260.2670453874525
    vertex 10 50 -281.8446969249684
  endloop
endfacet
facet normal 0.785398 -0.618991 0
  outer loop
    vertex 10 50 -152.3787876998737
    vertex 2.337005501373163 40.27691379825564 -173.9564392373896
    vertex 10 50 -195.5340907749053
  endloop
endfacet
facet normal 0.71071 -0.703485 0
  outer loop
    vertex 10 50 -195.5340907749053
    vertex 0.1021672749556408 40.00052192122368 -217.1117423124211
    vertex 10 50 -238.6893938499368
  endloop
endfacet
facet normal -0.737781 -0.671027 0.0735008
  outer loop
    vertex -10 50 -22.9128784747792
    vertex -3.138446262271152 40.50525645112854 -40.72084525440991
    vertex -1.743969420569861 40.1532456788992 -29.93714892505827
  endloop
endfacet
facet normal 0.707107 -0.707107 0
  outer loop
    vertex 10 50 -109.2234846248422
    vertex 6.8456970463676e-14 40 -126.5807788011013
    vertex 10 50 -152.3787876998737
  endloop
endfacet
facet normal -0.696634 -0.717427 0
  outer loop
    vertex -10 50 -325
    vertex 0.294032214245845 40.00432368186196 -295.6360956650367
    vertex -10 50 -281.8446969249683
  endloop
endfacet
facet normal 0.717427 -0.696634 0
  outer loop
    vertex 10 50 -281.8446969249684
    vertex 0.294032214245845 40.00432368186196 -295.6360956650367
    vertex 10 50 -325
  endloop
endfacet
facet normal -0.618991 -0.785398 0
  outer loop
    vertex -10 50 -195.5340907749054
    vertex 2.337005501373163 40.27691379825564 -173.9564392373896
    vertex -10 50 -152.3787876998739
  endloop
endfacet
facet normal -0.703485 -0.71071 0
  outer loop
    vertex -10 50 -238.6893938499368
    vertex 0.1021672749556408 40.00052192122368 -217.1117423124211
    vertex -10 50 -195.5340907749054
  endloop
endfacet
facet normal -0.618991 -0.785398 0
  outer loop
    vertex -10 50 -281.8446969249683
    vertex 2.337005501373396 40.27691379825569 -260.2670453874525
    vertex -10 50 -238.6893938499368
  endloop
endfacet
facet normal 0.618991 -0.785398 0
  outer loop
    vertex 10 50 -66.06818154981079
    vertex -2.337005501381631 40.27691379825767 -87.64583308732651
    vertex 10 50 -109.2234846248422
  endloop
endfacet
facet normal -0.64524 -0.756221 -0.108602
  outer loop
    vertex -2.597303112334023e-15 40 -55.84911607948061
    vertex -3.138446262271152 40.50525645112854 -40.72084525440991
    vertex -10 50 -66.06818154981079
  endloop
endfacet
facet normal -0.702046 -0.712121 -0.00390544
  outer loop
    vertex -10 50 -152.3787876998739
    vertex 0.1041812347547028 40.00054270120998 -145.4074800719714
    vertex 6.8456970463676e-14 40 -126.5807788011013
  endloop
endfacet
facet normal 0.71214 -0.702026 0.00392053
  outer loop
    vertex 6.8456970463676e-14 40 -126.5807788011013
    vertex 0.1041812347547028 40.00054270120998 -145.4074800719714
    vertex 10 50 -152.3787876998737
  endloop
endfacet
facet normal -0.730272 -0.681487 0.0477387
  outer loop
    vertex -2.337005501381631 40.27691379825767 -87.64583308732651
    vertex -2.597303112334023e-15 40 -55.84911607948061
    vertex -10 50 -66.06818154981079
  endloop
endfacet
facet normal 0.676729 -0.73409 -0.0561315
  outer loop
    vertex 10 50 -66.06818154981079
    vertex -2.597303112334023e-15 40 -55.84911607948061
    vertex -2.337005501381631 40.27691379825767 -87.64583308732651
  endloop
endfacet
facet normal 0.742432 -0.668858 -0.0377292
  outer loop
    vertex 2.337005501373396 40.27691379825569 -260.2670453874525
    vertex 0.294032214245845 40.00432368186196 -295.6360956650367
    vertex 10 50 -281.8446969249684
  endloop
endfacet
facet normal -0.664881 -0.745644 0.0441513
  outer loop
    vertex -10 50 -281.8446969249683
    vertex 0.294032214245845 40.00432368186196 -295.6360956650367
    vertex 2.337005501373396 40.27691379825569 -260.2670453874525
  endloop
endfacet
facet normal 0.727176 -0.68461 0.0502453
  outer loop
    vertex 10 50 -152.3787876998737
    vertex 0.1041812347547028 40.00054270120998 -145.4074800719714
    vertex 2.337005501373163 40.27691379825564 -173.9564392373896
  endloop
endfacet
facet normal -0.680802 -0.72998 -0.0603124
  outer loop
    vertex 2.337005501373163 40.27691379825564 -173.9564392373896
    vertex 0.1041812347547028 40.00054270120998 -145.4074800719714
    vertex -10 50 -152.3787876998739
  endloop
endfacet
facet normal 2.9191e-15 -0.911714 -0.410826
  outer loop
    vertex 10 50 -109.2234846248422
    vertex -2.337005501381631 40.27691379825767 -87.64583308732651
    vertex -10 50 -109.2234846248424
  endloop
endfacet
facet normal -2.98757e-15 -0.907309 0.420464
  outer loop
    vertex -10 50 -195.5340907749054
    vertex 0.1021672749556408 40.00052192122368 -217.1117423124211
    vertex 10 50 -195.5340907749053
  endloop
endfacet
facet normal -1.16764e-15 -0.911714 0.410826
  outer loop
    vertex -10 50 -238.6893938499368
    vertex 2.337005501373396 40.27691379825569 -260.2670453874525
    vertex 10 50 -238.6893938499368
  endloop
endfacet
facet normal 2.9191e-15 -0.911714 -0.410826
  outer loop
    vertex 10 50 -195.5340907749053
    vertex 2.337005501373163 40.27691379825564 -173.9564392373896
    vertex -10 50 -195.5340907749054
  endloop
endfacet
facet normal 1.19503e-15 -0.907309 -0.420464
  outer loop
    vertex 10 50 -238.6893938499368
    vertex 0.1021672749556408 40.00052192122368 -217.1117423124211
    vertex -10 50 -238.6893938499368
  endloop
endfacet
facet normal 0.921558 -0.359431 -0.146767
  outer loop
    vertex 7.073226911862964 42.93109195770502 -23.97852082409731
    vertex 4.460510880383158 41.04992498992419 -35.77689350691237
    vertex 10 50 -22.9128784747792
  endloop
endfacet
facet normal 0.727906 -0.420257 0.541791
  outer loop
    vertex 10 50 -325
    vertex -1.147908730933527e-14 40 -319.3216304573083
    vertex 5.000000000000006 41.33974596215562 -325
  endloop
endfacet
facet normal -0.727906 -0.420257 0.541791
  outer loop
    vertex -4.999999999999999 41.33974596215561 -325
    vertex -1.147908730933527e-14 40 -319.3216304573083
    vertex -10 50 -325
  endloop
endfacet
facet normal 0.374037 -0.925156 0.0646801
  outer loop
    vertex -3.41074011481896e-14 40 -25
    vertex 4.460510880383158 41.04992498992419 -35.77689350691237
    vertex 7.073226911862964 42.93109195770502 -23.97852082409731
  endloop
endfacet
facet normal -0.776322 -0.233139 -0.585637
  outer loop
    vertex -10 50 -22.9128784747792
    vertex -1.743969420569861 40.1532456788992 -29.93714892505827
    vertex -7.073226911862976 42.93109195770504 -23.97852082409733
  endloop
endfacet
facet normal -3.54706e-15 -0.866484 0.499205
  outer loop
    vertex -10 50 -109.2234846248424
    vertex 6.8456970463676e-14 40 -126.5807788011013
    vertex 10 50 -109.2234846248422
  endloop
endfacet
facet normal 6.91555e-16 -0.973277 -0.229634
  outer loop
    vertex 5.000000000000006 41.33974596215562 -325
    vertex -1.147908730933527e-14 40 -319.3216304573083
    vertex -4.999999999999999 41.33974596215561 -325
  endloop
endfacet
facet normal -0.368316 -0.924153 0.101417
  outer loop
    vertex -7.073226911862976 42.93109195770504 -23.97852082409733
    vertex -1.743969420569861 40.1532456788992 -29.93714892505827
    vertex -3.41074011481896e-14 40 -25
  endloop
endfacet
facet normal 0.0860519 -0.994405 -0.0612621
  outer loop
    vertex -1.743969420569861 40.1532456788992 -29.93714892505827
    vertex 4.460510880383158 41.04992498992419 -35.77689350691237
    vertex -3.41074011481896e-14 40 -25
  endloop
endfacet
facet normal 0.100827 -0.993864 -0.0454809
  outer loop
    vertex -1.743969420569861 40.1532456788992 -29.93714892505827
    vertex -3.138446262271152 40.50525645112854 -40.72084525440991
    vertex 4.460510880383158 41.04992498992419 -35.77689350691237
  endloop
endfacet
facet normal -0.707107 -0.707107 0
  outer loop
    vertex -10 50 -152.3787876998739
    vertex 6.8456970463676e-14 40 -126.5807788011013
    vertex -10 50 -109.2234846248424
  endloop
endfacet
facet normal 0.0439256 -0.998133 0.0424484
  outer loop
    vertex 4.460510880383158 41.04992498992419 -35.77689350691237
    vertex -3.138446262271152 40.50525645112854 -40.72084525440991
    vertex -2.597303112334023e-15 40 -55.84911607948061
  endloop
endfacet
facet normal 0.810507 0.585728 -0
  outer loop
    vertex 10 50 -66.06818154981079
    vertex 3.13844626227296 59.49474354887086 -40.72084525440928
    vertex 10 50 -22.9128784747792
  endloop
endfacet
facet normal -0.850309 0.526284 0
  outer loop
    vertex -10 50 -22.9128784747792
    vertex -4.460510880382405 58.95007501007618 -35.77689350691331
    vertex -10 50 -66.06818154981079
  endloop
endfacet
facet normal -0.647818 0.754596 -0.104489
  outer loop
    vertex -10 50 -66.06818154981079
    vertex -4.460510880382405 58.95007501007618 -35.77689350691331
    vertex -1.480095140393164e-16 60 -55.84911607948062
  endloop
endfacet
facet normal 0.707107 0.707107 -0
  outer loop
    vertex 10 50 -325
    vertex 2.072436535210997e-15 60 -314.0492604286267
    vertex 10 50 -281.8446969249684
  endloop
endfacet
facet normal 0.71071 0.703485 -0
  outer loop
    vertex 10 50 -238.6893938499368
    vertex 0.1021672749552392 59.99947807877632 -217.1117423124211
    vertex 10 50 -195.5340907749053
  endloop
endfacet
facet normal -0.785398 0.618991 0
  outer loop
    vertex -10 50 -66.06818154981079
    vertex -2.337005501362096 59.72308620174702 -87.64583308732651
    vertex -10 50 -109.2234846248424
  endloop
endfacet
facet normal -0.785398 0.618991 0
  outer loop
    vertex -10 50 -109.2234846248424
    vertex -2.337005501361948 59.72308620174706 -130.8011361623579
    vertex -10 50 -152.3787876998739
  endloop
endfacet
facet normal 0.737781 0.671027 0.0735008
  outer loop
    vertex 10 50 -22.9128784747792
    vertex 3.13844626227296 59.49474354887086 -40.72084525440928
    vertex 1.743969420576532 59.84675432109962 -29.93714892505727
  endloop
endfacet
facet normal -0.707107 0.707107 0
  outer loop
    vertex -10 50 -152.3787876998739
    vertex -6.676139099154871e-14 60 -178.1767965986463
    vertex -10 50 -195.5340907749054
  endloop
endfacet
facet normal 0.707107 0.707107 -0
  outer loop
    vertex 10 50 -281.8446969249684
    vertex -3.12342542035437e-14 60 -258.1328835539153
    vertex 10 50 -238.6893938499368
  endloop
endfacet
facet normal 0.707107 0.707107 -0
  outer loop
    vertex 10 50 -195.5340907749053
    vertex -6.676139099154871e-14 60 -178.1767965986463
    vertex 10 50 -152.3787876998737
  endloop
endfacet
facet normal -0.707107 0.707107 0
  outer loop
    vertex -10 50 -238.6893938499368
    vertex -3.12342542035437e-14 60 -258.1328835539153
    vertex -10 50 -281.8446969249683
  endloop
endfacet
facet normal 0.618991 0.785398 -0
  outer loop
    vertex 10 50 -152.3787876998737
    vertex -2.337005501361948 59.72308620174706 -130.8011361623579
    vertex 10 50 -109.2234846248422
  endloop
endfacet
facet normal 0.618991 0.785398 -0
  outer loop
    vertex 10 50 -109.2234846248422
    vertex -2.337005501362096 59.72308620174702 -87.64583308732651
    vertex 10 50 -66.06818154981079
  endloop
endfacet
facet normal -0.703485 0.71071 0
  outer loop
    vertex -10 50 -195.5340907749054
    vertex 0.1021672749552392 59.99947807877632 -217.1117423124211
    vertex -10 50 -238.6893938499368
  endloop
endfacet
facet normal 1.68568e-15 0.955018 0.296547
  outer loop
    vertex 10 50 -281.8446969249684
    vertex 2.072436535210997e-15 60 -314.0492604286267
    vertex -10 50 -281.8446969249683
  endloop
endfacet
facet normal 0.64524 0.756221 -0.108602
  outer loop
    vertex -1.480095140393164e-16 60 -55.84911607948062
    vertex 3.13844626227296 59.49474354887086 -40.72084525440928
    vertex 10 50 -66.06818154981079
  endloop
endfacet
facet normal 0.702046 0.712121 0.00390544
  outer loop
    vertex -6.676139099154871e-14 60 -178.1767965986463
    vertex -0.1041812347542038 59.99945729879002 -159.3500953277762
    vertex 10 50 -152.3787876998737
  endloop
endfacet
facet normal -0.71214 0.702026 -0.00392053
  outer loop
    vertex -10 50 -152.3787876998739
    vertex -0.1041812347542038 59.99945729879002 -159.3500953277762
    vertex -6.676139099154871e-14 60 -178.1767965986463
  endloop
endfacet
facet normal -0.730272 0.681487 0.0477387
  outer loop
    vertex -10 50 -66.06818154981079
    vertex -1.480095140393164e-16 60 -55.84911607948062
    vertex -2.337005501362096 59.72308620174702 -87.64583308732651
  endloop
endfacet
facet normal 0.676729 0.73409 -0.0561315
  outer loop
    vertex -2.337005501362096 59.72308620174702 -87.64583308732651
    vertex -1.480095140393164e-16 60 -55.84911607948062
    vertex 10 50 -66.06818154981079
  endloop
endfacet
facet normal -2.20887e-15 0.921412 -0.388588
  outer loop
    vertex -10 50 -281.8446969249683
    vertex -3.12342542035437e-14 60 -258.1328835539153
    vertex 10 50 -281.8446969249684
  endloop
endfacet
facet normal -0.727176 0.68461 -0.0502453
  outer loop
    vertex -2.337005501361948 59.72308620174706 -130.8011361623579
    vertex -0.1041812347542038 59.99945729879002 -159.3500953277762
    vertex -10 50 -152.3787876998739
  endloop
endfacet
facet normal 0.680802 0.72998 0.0603124
  outer loop
    vertex 10 50 -152.3787876998737
    vertex -0.1041812347542038 59.99945729879002 -159.3500953277762
    vertex -2.337005501361948 59.72308620174706 -130.8011361623579
  endloop
endfacet
facet normal -2.98757e-15 0.907309 0.420464
  outer loop
    vertex 10 50 -195.5340907749053
    vertex 0.1021672749552392 59.99947807877632 -217.1117423124211
    vertex -10 50 -195.5340907749054
  endloop
endfacet
facet normal 1.19503e-15 0.907309 -0.420464
  outer loop
    vertex -10 50 -238.6893938499368
    vertex 0.1021672749552392 59.99947807877632 -217.1117423124211
    vertex 10 50 -238.6893938499368
  endloop
endfacet
facet normal 2.9191e-15 0.911714 -0.410826
  outer loop
    vertex -10 50 -109.2234846248424
    vertex -2.337005501362096 59.72308620174702 -87.64583308732651
    vertex 10 50 -109.2234846248422
  endloop
endfacet
facet normal -2.9191e-15 0.911714 0.410826
  outer loop
    vertex 10 50 -109.2234846248422
    vertex -2.337005501361948 59.72308620174706 -130.8011361623579
    vertex -10 50 -109.2234846248424
  endloop
endfacet
facet normal -0.921558 0.359431 -0.146767
  outer loop
    vertex -7.073226911862963 57.068908042295 -23.97852082409728
    vertex -4.460510880382405 58.95007501007618 -35.77689350691331
    vertex -10 50 -22.9128784747792
  endloop
endfacet
facet normal 0.821358 0.474211 0.317008
  outer loop
    vertex 4.999999999999992 58.66025403784439 -325
    vertex 2.072436535210997e-15 60 -314.0492604286267
    vertex 10 50 -325
  endloop
endfacet
facet normal -0.821358 0.474211 0.317008
  outer loop
    vertex -10 50 -325
    vertex 2.072436535210997e-15 60 -314.0492604286267
    vertex -5.000000000000005 58.66025403784438 -325
  endloop
endfacet
facet normal -0.374037 0.925156 0.0646801
  outer loop
    vertex 7.13915417668159e-14 60 -25
    vertex -4.460510880382405 58.95007501007618 -35.77689350691331
    vertex -7.073226911862963 57.068908042295 -23.97852082409728
  endloop
endfacet
facet normal 0.776322 0.233139 -0.585637
  outer loop
    vertex 10 50 -22.9128784747792
    vertex 1.743969420576532 59.84675432109962 -29.93714892505727
    vertex 7.073226911862984 57.06890804229493 -23.97852082409733
  endloop
endfacet
facet normal 3.54706e-15 0.866484 -0.499205
  outer loop
    vertex -10 50 -195.5340907749054
    vertex -6.676139099154871e-14 60 -178.1767965986463
    vertex 10 50 -195.5340907749053
  endloop
endfacet
facet normal -1.29991e-15 0.889279 0.457366
  outer loop
    vertex 10 50 -238.6893938499368
    vertex -3.12342542035437e-14 60 -258.1328835539153
    vertex -10 50 -238.6893938499368
  endloop
endfacet
facet normal -7.05284e-16 0.992599 -0.121438
  outer loop
    vertex -5.000000000000005 58.66025403784438 -325
    vertex 2.072436535210997e-15 60 -314.0492604286267
    vertex 4.999999999999992 58.66025403784439 -325
  endloop
endfacet
facet normal 0.368316 0.924153 0.101417
  outer loop
    vertex 7.073226911862984 57.06890804229493 -23.97852082409733
    vertex 1.743969420576532 59.84675432109962 -29.93714892505727
    vertex 7.13915417668159e-14 60 -25
  endloop
endfacet
facet normal -0.0860519 0.994405 -0.0612621
  outer loop
    vertex 1.743969420576532 59.84675432109962 -29.93714892505727
    vertex -4.460510880382405 58.95007501007618 -35.77689350691331
    vertex 7.13915417668159e-14 60 -25
  endloop
endfacet
facet normal -0.100827 0.993864 -0.0454809
  outer loop
    vertex 1.743969420576532 59.84675432109962 -29.93714892505727
    vertex 3.13844626227296 59.49474354887086 -40.72084525440928
    vertex -4.460510880382405 58.95007501007618 -35.77689350691331
  endloop
endfacet
facet normal -0.707107 0.707107 0
  outer loop
    vertex -10 50 -281.8446969249683
    vertex 2.072436535210997e-15 60 -314.0492604286267
    vertex -10 50 -325
  endloop
endfacet
facet normal -0.0439256 0.998133 0.0424484
  outer loop
    vertex -4.460510880382405 58.95007501007618 -35.77689350691331
    vertex 3.13844626227296 59.49474354887086 -40.72084525440928
    vertex -1.480095140393164e-16 60 -55.84911607948062
  endloop
endfacet
endsolid Created by Gmsh
